<?xml version="1.0" encoding="UTF-8"?>
<!DOCTYPE svg PUBLIC "-//W3C//DTD SVG 1.1//EN" "http://www.w3.org/Graphics/SVG/1.1/DTD/svg11.dtd">
<svg xmlns="http://www.w3.org/2000/svg" version="1.1" width="788px" height="720px" style="shape-rendering:geometricPrecision; text-rendering:geometricPrecision; image-rendering:optimizeQuality; fill-rule:evenodd; clip-rule:evenodd" xmlns:xlink="http://www.w3.org/1999/xlink">
<g><path style="opacity:1" fill="#c4b69d" d="M 341.5,194.5 C 341.108,196.179 340.608,197.846 340,199.5C 332.23,209.393 325.23,219.726 319,230.5C 316.867,231.255 315.2,232.588 314,234.5C 308.92,242.993 303.586,251.327 298,259.5C 293.111,263.056 289.777,267.723 288,273.5C 284.848,275.316 282.848,277.983 282,281.5C 280.649,283.019 279.149,284.352 277.5,285.5C 274.228,291.722 270.228,297.389 265.5,302.5C 258.439,305.695 251.439,309.195 244.5,313C 230.46,324.862 218.46,338.362 208.5,353.5C 203.373,360.457 198.873,367.791 195,375.5C 193.795,376.071 192.628,376.738 191.5,377.5C 185.118,387.514 178.118,396.847 170.5,405.5C 143.159,405.833 115.825,405.5 88.5,404.5C 87.5721,403.232 87.4054,401.899 88,400.5C 153.326,310.157 218.326,219.49 283,128.5C 284.117,126.876 285.617,125.876 287.5,125.5C 290.068,126.559 292.235,128.226 294,130.5C 309.311,152.298 325.145,173.632 341.5,194.5 Z"/></g>
<g><path style="opacity:0.933" fill="#e8591c" d="M 453.5,202.5 C 452.833,203.833 452.167,205.167 451.5,206.5C 447.848,201.277 443.682,196.277 439,191.5C 436.824,186.654 433.991,182.32 430.5,178.5C 423.571,169.22 416.571,159.887 409.5,150.5C 407.486,147.806 405.986,144.806 405,141.5C 401.303,139.441 398.303,136.107 396,131.5C 394.249,130.826 392.583,130.493 391,130.5C 390.445,133.542 388.612,135.375 385.5,136C 386.517,137.049 386.684,138.216 386,139.5C 376.017,152.432 366.184,166.099 356.5,180.5C 355.192,181.626 353.858,181.626 352.5,180.5C 364.755,162.239 377.422,144.239 390.5,126.5C 391.5,126.167 392.5,125.833 393.5,125.5C 395.843,126.477 398.01,127.81 400,129.5C 407.741,141.307 415.741,152.973 424,164.5C 434.079,177.067 443.913,189.733 453.5,202.5 Z"/></g>
<g><path style="opacity:1" fill="#fa5a08" d="M 409.5,150.5 C 416.571,159.887 423.571,169.22 430.5,178.5C 429.801,180.556 428.801,182.556 427.5,184.5C 428.311,185.216 428.978,186.05 429.5,187C 427.344,191.913 426.344,197.079 426.5,202.5C 420.167,202.5 413.833,202.5 407.5,202.5C 407.411,212.21 406.744,221.877 405.5,231.5C 401.154,231.334 396.821,231.501 392.5,232C 391.697,236.414 391.197,240.914 391,245.5C 386.934,246.464 382.767,246.797 378.5,246.5C 378.587,253.54 378.087,260.54 377,267.5C 374.959,268.423 372.792,268.756 370.5,268.5C 370.852,271.073 370.352,273.406 369,275.5C 367.333,275.167 365.667,274.833 364,274.5C 363.333,275.167 362.667,275.833 362,276.5C 361.501,280.821 361.334,285.154 361.5,289.5C 357.5,289.5 353.5,289.5 349.5,289.5C 349.758,294.717 349.425,299.884 348.5,305C 350.722,306.608 352.055,308.775 352.5,311.5C 351.167,312.833 349.833,314.167 348.5,315.5C 347.092,317.132 345.592,318.798 344,320.5C 343.517,321.448 343.351,322.448 343.5,323.5C 342.833,323.5 342.167,323.5 341.5,323.5C 341.217,322.711 340.717,322.044 340,321.5C 330.9,330.999 322.733,341.332 315.5,352.5C 313.832,353.844 312.165,355.177 310.5,356.5C 308.513,354.673 306.179,353.673 303.5,353.5C 303.944,347.168 304.444,340.835 305,334.5C 309.362,333.139 313.862,332.472 318.5,332.5C 318.183,329.428 318.516,326.428 319.5,323.5C 321.5,322.833 322.833,321.5 323.5,319.5C 322.635,319.436 321.635,319.103 320.5,318.5C 319.526,316.257 319.192,313.924 319.5,311.5C 321.833,311.5 324.167,311.5 326.5,311.5C 326.5,306.5 326.5,301.5 326.5,296.5C 328.833,296.5 331.167,296.5 333.5,296.5C 333.5,291.833 333.5,287.167 333.5,282.5C 335.833,282.5 338.167,282.5 340.5,282.5C 340.5,280.167 340.5,277.833 340.5,275.5C 342.833,275.5 345.167,275.5 347.5,275.5C 348.245,265.852 348.578,256.185 348.5,246.5C 350.833,246.5 353.167,246.5 355.5,246.5C 355.5,243.833 355.5,241.167 355.5,238.5C 357.833,238.5 360.167,238.5 362.5,238.5C 361.635,233.733 361.635,229.067 362.5,224.5C 367.167,224.5 371.833,224.5 376.5,224.5C 376.916,219.507 377.249,214.507 377.5,209.5C 379.833,209.5 382.167,209.5 384.5,209.5C 384.5,207.167 384.5,204.833 384.5,202.5C 386.833,202.5 389.167,202.5 391.5,202.5C 391.5,197.833 391.5,193.167 391.5,188.5C 393.833,188.5 396.167,188.5 398.5,188.5C 398.751,183.493 399.084,178.493 399.5,173.5C 403.198,173.552 406.865,173.886 410.5,174.5C 410.17,171.891 408.67,170.224 406,169.5C 405.146,167.393 405.812,166.059 408,165.5C 409.663,167.328 411.496,168.995 413.5,170.5C 414.631,168.926 414.798,167.259 414,165.5C 412.581,163.664 411.414,161.664 410.5,159.5C 409.305,157.703 407.638,156.703 405.5,156.5C 405.5,154.833 405.5,153.167 405.5,151.5C 407.099,151.768 408.432,151.434 409.5,150.5 Z"/></g>
<g><path style="opacity:1" fill="#fc6009" d="M 430.5,178.5 C 433.991,182.32 436.824,186.654 439,191.5C 443.682,196.277 447.848,201.277 451.5,206.5C 450.507,209.073 449.674,211.74 449,214.5C 442.133,221.229 435.966,228.562 430.5,236.5C 424.27,243.946 418.77,251.946 414,260.5C 408.99,263.994 405.824,268.66 404.5,274.5C 398.62,283.72 391.954,292.387 384.5,300.5C 380.486,300.334 376.486,300.501 372.5,301C 370.253,302.277 368.253,303.777 366.5,305.5C 361.448,306.52 356.781,308.52 352.5,311.5C 352.055,308.775 350.722,306.608 348.5,305C 349.425,299.884 349.758,294.717 349.5,289.5C 353.5,289.5 357.5,289.5 361.5,289.5C 361.334,285.154 361.501,280.821 362,276.5C 362.667,275.833 363.333,275.167 364,274.5C 365.667,274.833 367.333,275.167 369,275.5C 370.352,273.406 370.852,271.073 370.5,268.5C 372.792,268.756 374.959,268.423 377,267.5C 378.087,260.54 378.587,253.54 378.5,246.5C 382.767,246.797 386.934,246.464 391,245.5C 391.197,240.914 391.697,236.414 392.5,232C 396.821,231.501 401.154,231.334 405.5,231.5C 406.744,221.877 407.411,212.21 407.5,202.5C 413.833,202.5 420.167,202.5 426.5,202.5C 426.344,197.079 427.344,191.913 429.5,187C 428.978,186.05 428.311,185.216 427.5,184.5C 428.801,182.556 429.801,180.556 430.5,178.5 Z"/></g>
<g><path style="opacity:1" fill="#ef2c68" d="M 590.5,228.5 C 589.5,228.5 588.5,228.5 587.5,228.5C 587.5,231.833 587.5,235.167 587.5,238.5C 585.167,238.5 582.833,238.5 580.5,238.5C 580.5,241.167 580.5,243.833 580.5,246.5C 575.5,246.5 570.5,246.5 565.5,246.5C 565.5,251.167 565.5,255.833 565.5,260.5C 560.901,260.2 556.401,260.533 552,261.5C 551.819,270.744 551.319,279.911 550.5,289C 548.695,289.972 547.028,291.139 545.5,292.5C 542.432,291.603 539.932,292.603 538,295.5C 532.996,293.882 527.829,293.215 522.5,293.5C 522.778,291.654 522.111,290.32 520.5,289.5C 516.017,291.29 511.35,292.624 506.5,293.5C 502.895,289.999 498.561,288.665 493.5,289.5C 493.5,290.5 493.5,291.5 493.5,292.5C 496.694,292.176 497.694,293.342 496.5,296C 493.833,296.333 491.167,296.667 488.5,297C 484.841,299.301 481.508,301.801 478.5,304.5C 476.534,305.441 474.534,306.441 472.5,307.5C 466.75,314.192 460.416,320.192 453.5,325.5C 450.023,328.143 448.69,331.476 449.5,335.5C 448.375,337.129 447.041,338.629 445.5,340C 446.252,340.671 446.586,341.504 446.5,342.5C 445.262,341.588 443.928,341.421 442.5,342C 440.306,344.194 438.14,346.36 436,348.5C 430.718,356.741 425.718,365.075 421,373.5C 419.58,375.422 417.747,376.755 415.5,377.5C 412.527,382.465 409.193,387.132 405.5,391.5C 405.338,389.473 405.505,387.473 406,385.5C 408.784,380.485 410.784,375.152 412,369.5C 414.559,368.02 417.226,366.687 420,365.5C 420.176,362.118 420.676,358.785 421.5,355.5C 422.507,352.543 423.841,349.876 425.5,347.5C 423.856,347.714 422.356,347.38 421,346.5C 420.501,342.179 420.334,337.846 420.5,333.5C 425.167,333.5 429.833,333.5 434.5,333.5C 434.92,335.674 434.92,337.674 434.5,339.5C 435.025,340.192 435.692,340.692 436.5,341C 434.44,342.493 434.107,344.326 435.5,346.5C 438.696,342.439 440.696,337.772 441.5,332.5C 448.535,330.803 449.035,328.137 443,324.5C 442.505,322.527 442.338,320.527 442.5,318.5C 444.857,318.337 447.19,318.503 449.5,319C 450.904,320.337 452.404,321.503 454,322.5C 456.02,321.968 456.853,320.635 456.5,318.5C 454.04,317.063 451.374,316.063 448.5,315.5C 448.372,313.345 448.872,311.345 450,309.5C 452.543,311.342 454.71,313.509 456.5,316C 458.134,316.494 459.801,316.66 461.5,316.5C 461.833,313.5 460.5,312.167 457.5,312.5C 457.222,310.654 457.889,309.32 459.5,308.5C 462.177,309.693 464.844,310.526 467.5,311C 468.333,308.919 468.333,306.752 467.5,304.5C 462.385,306.423 457.052,307.423 451.5,307.5C 449.891,294.072 449.225,280.739 449.5,267.5C 452.167,267.5 454.833,267.5 457.5,267.5C 457.5,262.833 457.5,258.167 457.5,253.5C 462.167,253.5 466.833,253.5 471.5,253.5C 471.5,251.167 471.5,248.833 471.5,246.5C 473.833,246.5 476.167,246.5 478.5,246.5C 478.5,243.833 478.5,241.167 478.5,238.5C 481.167,238.5 483.833,238.5 486.5,238.5C 486.5,236.167 486.5,233.833 486.5,231.5C 488.833,231.5 491.167,231.5 493.5,231.5C 493.5,226.833 493.5,222.167 493.5,217.5C 483.94,216.367 474.44,216.367 465,217.5C 464.882,214.629 464.216,211.962 463,209.5C 461.301,210.406 459.467,210.739 457.5,210.5C 456.659,203.838 459.159,198.838 465,195.5C 466.248,191.174 468.414,187.341 471.5,184C 472.635,183.251 473.635,183.417 474.5,184.5C 475.868,186.637 476.868,188.97 477.5,191.5C 478.086,191.291 478.586,190.957 479,190.5C 479.994,185.753 479.494,181.253 477.5,177C 478.608,174.888 480.108,173.054 482,171.5C 483.23,168.794 483.396,166.127 482.5,163.5C 488.729,152.942 495.729,142.942 503.5,133.5C 504.291,135.056 504.624,136.39 504.5,137.5C 507.66,133.834 510.66,130.001 513.5,126C 515.367,125.289 516.867,125.789 518,127.5C 538.268,156.104 558.934,184.438 580,212.5C 580.495,214.473 580.662,216.473 580.5,218.5C 581.552,218.351 582.552,218.517 583.5,219C 586.076,222.063 588.409,225.229 590.5,228.5 Z"/></g>
<g><path style="opacity:1" fill="#f85209" d="M 409.5,150.5 C 408.432,151.434 407.099,151.768 405.5,151.5C 405.5,153.167 405.5,154.833 405.5,156.5C 407.638,156.703 409.305,157.703 410.5,159.5C 411.414,161.664 412.581,163.664 414,165.5C 414.798,167.259 414.631,168.926 413.5,170.5C 411.496,168.995 409.663,167.328 408,165.5C 405.812,166.059 405.146,167.393 406,169.5C 408.67,170.224 410.17,171.891 410.5,174.5C 406.865,173.886 403.198,173.552 399.5,173.5C 399.084,178.493 398.751,183.493 398.5,188.5C 396.167,188.5 393.833,188.5 391.5,188.5C 391.5,193.167 391.5,197.833 391.5,202.5C 389.167,202.5 386.833,202.5 384.5,202.5C 384.5,204.833 384.5,207.167 384.5,209.5C 382.167,209.5 379.833,209.5 377.5,209.5C 377.249,214.507 376.916,219.507 376.5,224.5C 371.833,224.5 367.167,224.5 362.5,224.5C 361.635,229.067 361.635,233.733 362.5,238.5C 360.167,238.5 357.833,238.5 355.5,238.5C 355.5,241.167 355.5,243.833 355.5,246.5C 353.167,246.5 350.833,246.5 348.5,246.5C 348.578,256.185 348.245,265.852 347.5,275.5C 345.167,275.5 342.833,275.5 340.5,275.5C 340.5,277.833 340.5,280.167 340.5,282.5C 338.167,282.5 335.833,282.5 333.5,282.5C 333.5,287.167 333.5,291.833 333.5,296.5C 331.167,296.5 328.833,296.5 326.5,296.5C 326.5,301.5 326.5,306.5 326.5,311.5C 324.167,311.5 321.833,311.5 319.5,311.5C 319.192,313.924 319.526,316.257 320.5,318.5C 321.635,319.103 322.635,319.436 323.5,319.5C 322.833,321.5 321.5,322.833 319.5,323.5C 318.516,326.428 318.183,329.428 318.5,332.5C 313.862,332.472 309.362,333.139 305,334.5C 304.444,340.835 303.944,347.168 303.5,353.5C 306.179,353.673 308.513,354.673 310.5,356.5C 312.165,355.177 313.832,353.844 315.5,352.5C 311.246,360.633 305.746,367.966 299,374.5C 293.784,382.566 288.284,390.566 282.5,398.5C 279.421,400.492 276.754,402.825 274.5,405.5C 250.833,405.5 227.167,405.5 203.5,405.5C 202.058,404.18 201.392,402.514 201.5,400.5C 209.181,400.459 216.848,400.793 224.5,401.5C 231.832,400.978 239.165,400.478 246.5,400C 246.167,399.667 245.833,399.333 245.5,399C 246.113,396.853 246.779,394.686 247.5,392.5C 251.24,392.235 254.74,392.568 258,393.5C 258.925,392.953 259.758,392.287 260.5,391.5C 256.126,391.087 251.793,390.754 247.5,390.5C 247.5,385.833 247.5,381.167 247.5,376.5C 251.833,376.5 256.167,376.5 260.5,376.5C 260.496,372.973 260.163,369.473 259.5,366C 260.138,363.188 261.138,360.521 262.5,358C 261.837,354.527 261.504,351.027 261.5,347.5C 265.833,347.5 270.167,347.5 274.5,347.5C 274.549,340.151 274.882,332.817 275.5,325.5C 273.167,325.5 270.833,325.5 268.5,325.5C 268.5,330.5 268.5,335.5 268.5,340.5C 264.741,341.075 261.741,339.909 259.5,337C 260.022,336.05 260.689,335.216 261.5,334.5C 260.011,334.467 258.678,333.967 257.5,333C 257.963,330.415 259.13,328.248 261,326.5C 261.333,324.167 261.667,321.833 262,319.5C 262.925,318.953 263.758,318.287 264.5,317.5C 262.599,316.769 260.599,316.769 258.5,317.5C 258.288,322.044 255.955,324.711 251.5,325.5C 255.369,318.28 259.702,311.28 264.5,304.5C 264.833,303.833 265.167,303.167 265.5,302.5C 270.228,297.389 274.228,291.722 277.5,285.5C 279.149,284.352 280.649,283.019 282,281.5C 282.848,277.983 284.848,275.316 288,273.5C 289.777,267.723 293.111,263.056 298,259.5C 303.586,251.327 308.92,242.993 314,234.5C 315.2,232.588 316.867,231.255 319,230.5C 325.23,219.726 332.23,209.393 340,199.5C 340.608,197.846 341.108,196.179 341.5,194.5C 345.167,189.833 348.833,185.167 352.5,180.5C 353.858,181.626 355.192,181.626 356.5,180.5C 366.184,166.099 376.017,152.432 386,139.5C 386.684,138.216 386.517,137.049 385.5,136C 388.612,135.375 390.445,133.542 391,130.5C 392.583,130.493 394.249,130.826 396,131.5C 398.303,136.107 401.303,139.441 405,141.5C 405.986,144.806 407.486,147.806 409.5,150.5 Z"/></g>
<g><path style="opacity:1" fill="#f6473a" d="M 430.5,236.5 C 428.56,240.942 426.393,245.275 424,249.5C 417.675,257.989 411.175,266.322 404.5,274.5C 405.824,268.66 408.99,263.994 414,260.5C 418.77,251.946 424.27,243.946 430.5,236.5 Z"/></g>
<g><path style="opacity:0.514" fill="#dc436f" d="M 708.5,384.5 C 707.312,385.048 706.145,385.381 705,385.5C 697.667,375.5 690.333,365.5 683,355.5C 681.292,353.457 679.292,351.79 677,350.5C 675.507,344.844 672.507,340.177 668,336.5C 667.529,334.754 666.862,333.087 666,331.5C 661.206,326.553 657.039,321.22 653.5,315.5C 632.719,286.097 611.719,257.097 590.5,228.5C 588.409,225.229 586.076,222.063 583.5,219C 582.552,218.517 581.552,218.351 580.5,218.5C 580.662,216.473 580.495,214.473 580,212.5C 558.934,184.438 538.268,156.104 518,127.5C 516.867,125.789 515.367,125.289 513.5,126C 510.66,130.001 507.66,133.834 504.5,137.5C 504.624,136.39 504.291,135.056 503.5,133.5C 506.47,129.598 509.47,125.598 512.5,121.5C 516.195,119.814 519.029,120.814 521,124.5C 546.591,161.416 572.924,197.75 600,233.5C 635.61,284.27 671.777,334.603 708.5,384.5 Z"/></g>
<g><path style="opacity:1" fill="#f6356a" d="M 590.5,228.5 C 611.719,257.097 632.719,286.097 653.5,315.5C 652.18,314.058 650.514,313.392 648.5,313.5C 648.649,312.448 648.483,311.448 648,310.5C 646.989,311.337 645.822,311.67 644.5,311.5C 644.662,309.473 644.495,307.473 644,305.5C 642.324,304.939 640.991,303.939 640,302.5C 638.711,305.351 638.211,308.351 638.5,311.5C 636.167,311.5 633.833,311.5 631.5,311.5C 631.5,313.833 631.5,316.167 631.5,318.5C 629.167,318.5 626.833,318.5 624.5,318.5C 623.845,333.158 623.512,347.824 623.5,362.5C 621.833,362.5 620.167,362.5 618.5,362.5C 618.258,368.248 615.424,370.248 610,368.5C 609.808,366.423 609.308,364.423 608.5,362.5C 607.264,361.754 605.93,361.421 604.5,361.5C 604.356,358.116 603.023,355.283 600.5,353C 600.957,352.586 601.291,352.086 601.5,351.5C 599.922,350.702 598.256,350.202 596.5,350C 595.941,347.374 594.775,344.874 593,342.5C 591.933,341.809 590.766,341.309 589.5,341C 588.159,336.491 585.159,333.991 580.5,333.5C 577.832,328.841 574.665,324.508 571,320.5C 569.89,318.963 568.39,318.297 566.5,318.5C 566.5,317.167 566.5,315.833 566.5,314.5C 562.188,312.711 558.521,309.877 555.5,306C 545.539,300.186 534.873,296.352 523.5,294.5C 521.304,294.505 519.304,294.838 517.5,295.5C 509.381,295.114 501.381,295.781 493.5,297.5C 488.395,299.552 483.395,301.885 478.5,304.5C 481.508,301.801 484.841,299.301 488.5,297C 491.167,296.667 493.833,296.333 496.5,296C 497.694,293.342 496.694,292.176 493.5,292.5C 493.5,291.5 493.5,290.5 493.5,289.5C 498.561,288.665 502.895,289.999 506.5,293.5C 511.35,292.624 516.017,291.29 520.5,289.5C 522.111,290.32 522.778,291.654 522.5,293.5C 527.829,293.215 532.996,293.882 538,295.5C 539.932,292.603 542.432,291.603 545.5,292.5C 547.028,291.139 548.695,289.972 550.5,289C 551.319,279.911 551.819,270.744 552,261.5C 556.401,260.533 560.901,260.2 565.5,260.5C 565.5,255.833 565.5,251.167 565.5,246.5C 570.5,246.5 575.5,246.5 580.5,246.5C 580.5,243.833 580.5,241.167 580.5,238.5C 582.833,238.5 585.167,238.5 587.5,238.5C 587.5,235.167 587.5,231.833 587.5,228.5C 588.5,228.5 589.5,228.5 590.5,228.5 Z"/></g>
<g><path style="opacity:1" fill="#fd7904" d="M 517.5,295.5 C 518.806,297.473 520.473,299.139 522.5,300.5C 522.5,301.167 522.5,301.833 522.5,302.5C 522.178,304.722 522.845,306.556 524.5,308C 523.643,308.689 522.977,309.522 522.5,310.5C 525.733,310.753 528.066,312.253 529.5,315C 527.1,315.186 524.766,315.686 522.5,316.5C 524.542,316.065 526.542,316.731 528.5,318.5C 530.62,317.128 531.62,317.795 531.5,320.5C 529.523,321.149 527.69,321.149 526,320.5C 522.703,322.158 521.703,324.825 523,328.5C 525.037,325.361 527.537,324.528 530.5,326C 528.326,329.004 525.992,331.837 523.5,334.5C 522.534,336.396 522.201,338.396 522.5,340.5C 520.167,340.5 517.833,340.5 515.5,340.5C 515.5,342.833 515.5,345.167 515.5,347.5C 512.833,347.5 510.167,347.5 507.5,347.5C 507.5,352.5 507.5,357.5 507.5,362.5C 505.167,362.5 502.833,362.5 500.5,362.5C 500.173,367.214 500.507,371.88 501.5,376.5C 502.478,376.977 503.311,377.643 504,378.5C 504.619,381.032 505.619,383.365 507,385.5C 507.784,391.41 507.118,391.743 505,386.5C 502.691,385.025 500.524,383.358 498.5,381.5C 497.167,380.167 495.833,380.167 494.5,381.5C 495.816,382.807 496.816,384.307 497.5,386C 501.313,387.431 503.313,390.264 503.5,394.5C 504.822,394.33 505.989,394.663 507,395.5C 507.495,397.473 507.662,399.473 507.5,401.5C 493.739,384.578 480.572,367.245 468,349.5C 463.232,342.291 458.732,334.957 454.5,327.5C 461.929,318.882 470.596,312.049 480.5,307C 483.183,303.546 486.683,301.379 491,300.5C 492.31,299.87 493.144,298.87 493.5,297.5C 501.381,295.781 509.381,295.114 517.5,295.5 Z"/></g>
<g><path style="opacity:1" fill="#f95e2f" d="M 493.5,297.5 C 493.144,298.87 492.31,299.87 491,300.5C 486.683,301.379 483.183,303.546 480.5,307C 470.596,312.049 461.929,318.882 454.5,327.5C 453.662,327.158 453.328,326.492 453.5,325.5C 460.416,320.192 466.75,314.192 472.5,307.5C 474.534,306.441 476.534,305.441 478.5,304.5C 483.395,301.885 488.395,299.552 493.5,297.5 Z"/></g>
<g><path style="opacity:1" fill="#e49964" d="M 366.5,305.5 C 360.83,309.337 354.83,312.67 348.5,315.5C 349.833,314.167 351.167,312.833 352.5,311.5C 356.781,308.52 361.448,306.52 366.5,305.5 Z"/></g>
<g><path style="opacity:1" fill="#eb2869" d="M 482.5,163.5 C 483.396,166.127 483.23,168.794 482,171.5C 480.108,173.054 478.608,174.888 477.5,177C 479.494,181.253 479.994,185.753 479,190.5C 478.586,190.957 478.086,191.291 477.5,191.5C 476.868,188.97 475.868,186.637 474.5,184.5C 473.635,183.417 472.635,183.251 471.5,184C 468.414,187.341 466.248,191.174 465,195.5C 459.159,198.838 456.659,203.838 457.5,210.5C 459.467,210.739 461.301,210.406 463,209.5C 464.216,211.962 464.882,214.629 465,217.5C 474.44,216.367 483.94,216.367 493.5,217.5C 493.5,222.167 493.5,226.833 493.5,231.5C 491.167,231.5 488.833,231.5 486.5,231.5C 486.5,233.833 486.5,236.167 486.5,238.5C 483.833,238.5 481.167,238.5 478.5,238.5C 478.5,241.167 478.5,243.833 478.5,246.5C 476.167,246.5 473.833,246.5 471.5,246.5C 471.5,248.833 471.5,251.167 471.5,253.5C 466.833,253.5 462.167,253.5 457.5,253.5C 457.5,258.167 457.5,262.833 457.5,267.5C 454.833,267.5 452.167,267.5 449.5,267.5C 449.225,280.739 449.891,294.072 451.5,307.5C 457.052,307.423 462.385,306.423 467.5,304.5C 468.333,306.752 468.333,308.919 467.5,311C 464.844,310.526 462.177,309.693 459.5,308.5C 457.889,309.32 457.222,310.654 457.5,312.5C 460.5,312.167 461.833,313.5 461.5,316.5C 459.801,316.66 458.134,316.494 456.5,316C 454.71,313.509 452.543,311.342 450,309.5C 448.872,311.345 448.372,313.345 448.5,315.5C 451.374,316.063 454.04,317.063 456.5,318.5C 456.853,320.635 456.02,321.968 454,322.5C 452.404,321.503 450.904,320.337 449.5,319C 447.19,318.503 444.857,318.337 442.5,318.5C 442.338,320.527 442.505,322.527 443,324.5C 449.035,328.137 448.535,330.803 441.5,332.5C 440.696,337.772 438.696,342.439 435.5,346.5C 434.107,344.326 434.44,342.493 436.5,341C 435.692,340.692 435.025,340.192 434.5,339.5C 434.92,337.674 434.92,335.674 434.5,333.5C 429.833,333.5 425.167,333.5 420.5,333.5C 420.334,337.846 420.501,342.179 421,346.5C 422.356,347.38 423.856,347.714 425.5,347.5C 423.841,349.876 422.507,352.543 421.5,355.5C 420.676,358.785 420.176,362.118 420,365.5C 417.226,366.687 414.559,368.02 412,369.5C 410.784,375.152 408.784,380.485 406,385.5C 405.505,387.473 405.338,389.473 405.5,391.5C 404.25,393.932 402.75,396.266 401,398.5C 400.505,400.473 400.338,402.473 400.5,404.5C 399.373,403.878 398.373,403.045 397.5,402C 369.835,401.5 342.169,401.333 314.5,401.5C 314.298,399.011 314.798,396.677 316,394.5C 324.333,383.167 332.667,371.833 341,360.5C 345.439,353.945 349.605,347.279 353.5,340.5C 354.688,339.952 355.855,339.619 357,339.5C 361.289,333.542 365.956,327.876 371,322.5C 375.271,314.944 379.771,307.61 384.5,300.5C 391.954,292.387 398.62,283.72 404.5,274.5C 411.175,266.322 417.675,257.989 424,249.5C 426.393,245.275 428.56,240.942 430.5,236.5C 435.966,228.562 442.133,221.229 449,214.5C 449.674,211.74 450.507,209.073 451.5,206.5C 452.167,205.167 452.833,203.833 453.5,202.5C 462.957,189.21 472.624,176.21 482.5,163.5 Z"/></g>
<g><path style="opacity:1" fill="#fa396a" d="M 653.5,315.5 C 657.039,321.22 661.206,326.553 666,331.5C 666.862,333.087 667.529,334.754 668,336.5C 672.507,340.177 675.507,344.844 677,350.5C 679.292,351.79 681.292,353.457 683,355.5C 690.333,365.5 697.667,375.5 705,385.5C 706.145,385.381 707.312,385.048 708.5,384.5C 709.81,389.667 709.81,394.834 708.5,400C 683.5,400.564 658.5,401.064 633.5,401.5C 631.365,399.929 629.032,398.596 626.5,397.5C 623.999,392.81 620.832,388.476 617,384.5C 614.363,379.216 611.363,374.216 608,369.5C 605.291,366.622 602.458,363.956 599.5,361.5C 593.109,352.001 586.776,342.668 580.5,333.5C 585.159,333.991 588.159,336.491 589.5,341C 590.766,341.309 591.933,341.809 593,342.5C 594.775,344.874 595.941,347.374 596.5,350C 598.256,350.202 599.922,350.702 601.5,351.5C 601.291,352.086 600.957,352.586 600.5,353C 603.023,355.283 604.356,358.116 604.5,361.5C 605.93,361.421 607.264,361.754 608.5,362.5C 609.308,364.423 609.808,366.423 610,368.5C 615.424,370.248 618.258,368.248 618.5,362.5C 620.167,362.5 621.833,362.5 623.5,362.5C 623.512,347.824 623.845,333.158 624.5,318.5C 626.833,318.5 629.167,318.5 631.5,318.5C 631.5,316.167 631.5,313.833 631.5,311.5C 633.833,311.5 636.167,311.5 638.5,311.5C 638.211,308.351 638.711,305.351 640,302.5C 640.991,303.939 642.324,304.939 644,305.5C 644.495,307.473 644.662,309.473 644.5,311.5C 645.822,311.67 646.989,311.337 648,310.5C 648.483,311.448 648.649,312.448 648.5,313.5C 650.514,313.392 652.18,314.058 653.5,315.5 Z"/></g>
<g><path style="opacity:1" fill="#c7b39b" d="M 384.5,300.5 C 379.771,307.61 375.271,314.944 371,322.5C 365.956,327.876 361.289,333.542 357,339.5C 355.855,339.619 354.688,339.952 353.5,340.5C 350.152,337.149 347.152,333.482 344.5,329.5C 344.675,327.379 344.341,325.379 343.5,323.5C 343.351,322.448 343.517,321.448 344,320.5C 345.592,318.798 347.092,317.132 348.5,315.5C 354.83,312.67 360.83,309.337 366.5,305.5C 368.253,303.777 370.253,302.277 372.5,301C 376.486,300.501 380.486,300.334 384.5,300.5 Z"/></g>
<g><path style="opacity:1" fill="#fc8104" d="M 522.5,302.5 C 523.374,304.69 525.041,305.69 527.5,305.5C 527.5,306.167 527.833,306.5 528.5,306.5C 538.789,322.438 549.789,337.771 561.5,352.5C 561.446,354.271 561.28,356.271 561,358.5C 564.174,363.494 567.841,368.161 572,372.5C 577.269,381.376 583.269,389.71 590,397.5C 589.761,400.249 589.928,402.915 590.5,405.5C 563.5,405.5 536.5,405.5 509.5,405.5C 509.267,403.938 508.6,402.605 507.5,401.5C 507.662,399.473 507.495,397.473 507,395.5C 505.989,394.663 504.822,394.33 503.5,394.5C 503.313,390.264 501.313,387.431 497.5,386C 496.816,384.307 495.816,382.807 494.5,381.5C 495.833,380.167 497.167,380.167 498.5,381.5C 500.524,383.358 502.691,385.025 505,386.5C 507.118,391.743 507.784,391.41 507,385.5C 505.619,383.365 504.619,381.032 504,378.5C 503.311,377.643 502.478,376.977 501.5,376.5C 500.507,371.88 500.173,367.214 500.5,362.5C 502.833,362.5 505.167,362.5 507.5,362.5C 507.5,357.5 507.5,352.5 507.5,347.5C 510.167,347.5 512.833,347.5 515.5,347.5C 515.5,345.167 515.5,342.833 515.5,340.5C 517.833,340.5 520.167,340.5 522.5,340.5C 522.201,338.396 522.534,336.396 523.5,334.5C 525.992,331.837 528.326,329.004 530.5,326C 527.537,324.528 525.037,325.361 523,328.5C 521.703,324.825 522.703,322.158 526,320.5C 527.69,321.149 529.523,321.149 531.5,320.5C 531.62,317.795 530.62,317.128 528.5,318.5C 526.542,316.731 524.542,316.065 522.5,316.5C 524.766,315.686 527.1,315.186 529.5,315C 528.066,312.253 525.733,310.753 522.5,310.5C 522.977,309.522 523.643,308.689 524.5,308C 522.845,306.556 522.178,304.722 522.5,302.5 Z"/></g>
<g><path style="opacity:1" fill="#f94b08" d="M 203.5,405.5 C 202.167,405.5 200.833,405.5 199.5,405.5C 198.026,403.073 198.193,400.74 200,398.5C 211.029,382.747 221.862,367.413 232.5,352.5C 233.325,351.614 234.325,351.281 235.5,351.5C 235.343,350.127 235.51,348.793 236,347.5C 241.924,340.634 247.091,333.301 251.5,325.5C 255.955,324.711 258.288,322.044 258.5,317.5C 260.599,316.769 262.599,316.769 264.5,317.5C 263.758,318.287 262.925,318.953 262,319.5C 261.667,321.833 261.333,324.167 261,326.5C 259.13,328.248 257.963,330.415 257.5,333C 258.678,333.967 260.011,334.467 261.5,334.5C 260.689,335.216 260.022,336.05 259.5,337C 261.741,339.909 264.741,341.075 268.5,340.5C 268.5,335.5 268.5,330.5 268.5,325.5C 270.833,325.5 273.167,325.5 275.5,325.5C 274.882,332.817 274.549,340.151 274.5,347.5C 270.167,347.5 265.833,347.5 261.5,347.5C 261.504,351.027 261.837,354.527 262.5,358C 261.138,360.521 260.138,363.188 259.5,366C 260.163,369.473 260.496,372.973 260.5,376.5C 256.167,376.5 251.833,376.5 247.5,376.5C 247.5,381.167 247.5,385.833 247.5,390.5C 251.793,390.754 256.126,391.087 260.5,391.5C 259.758,392.287 258.925,392.953 258,393.5C 254.74,392.568 251.24,392.235 247.5,392.5C 246.779,394.686 246.113,396.853 245.5,399C 245.833,399.333 246.167,399.667 246.5,400C 239.165,400.478 231.832,400.978 224.5,401.5C 216.848,400.793 209.181,400.459 201.5,400.5C 201.392,402.514 202.058,404.18 203.5,405.5 Z"/></g>
<g><path style="opacity:0.538" fill="#ab121d" d="M 522.5,300.5 C 524.857,300.337 527.19,300.503 529.5,301C 553.615,311.948 571.282,329.448 582.5,353.5C 586.553,354.537 589.053,357.204 590,361.5C 596.333,369.833 602.667,378.167 609,386.5C 609.49,387.793 609.657,389.127 609.5,390.5C 610.552,390.351 611.552,390.517 612.5,391C 613.833,393 615.167,395 616.5,397C 619.817,397.498 623.15,397.665 626.5,397.5C 629.032,398.596 631.365,399.929 633.5,401.5C 627.491,401.666 621.491,401.499 615.5,401C 596.948,376.782 578.781,352.282 561,327.5C 551.988,317.584 541.155,310.584 528.5,306.5C 527.833,306.5 527.5,306.167 527.5,305.5C 525.041,305.69 523.374,304.69 522.5,302.5C 522.5,301.833 522.5,301.167 522.5,300.5 Z"/></g>
<g><path style="opacity:1" fill="#d6071f" d="M 517.5,295.5 C 519.304,294.838 521.304,294.505 523.5,294.5C 534.873,296.352 545.539,300.186 555.5,306C 558.521,309.877 562.188,312.711 566.5,314.5C 566.5,315.833 566.5,317.167 566.5,318.5C 568.39,318.297 569.89,318.963 571,320.5C 574.665,324.508 577.832,328.841 580.5,333.5C 586.776,342.668 593.109,352.001 599.5,361.5C 602.458,363.956 605.291,366.622 608,369.5C 611.363,374.216 614.363,379.216 617,384.5C 620.832,388.476 623.999,392.81 626.5,397.5C 623.15,397.665 619.817,397.498 616.5,397C 615.167,395 613.833,393 612.5,391C 611.552,390.517 610.552,390.351 609.5,390.5C 609.657,389.127 609.49,387.793 609,386.5C 602.667,378.167 596.333,369.833 590,361.5C 589.053,357.204 586.553,354.537 582.5,353.5C 571.282,329.448 553.615,311.948 529.5,301C 527.19,300.503 524.857,300.337 522.5,300.5C 520.473,299.139 518.806,297.473 517.5,295.5 Z"/></g>
<g><path style="opacity:0.906" fill="#57411e" d="M 264.5,304.5 C 259.702,311.28 255.369,318.28 251.5,325.5C 249.947,327.385 247.947,328.385 245.5,328.5C 245.565,328.062 245.399,327.728 245,327.5C 224.629,351.249 205.962,376.249 189,402.5C 187.152,405.041 184.652,406.041 181.5,405.5C 197.195,383.638 212.695,361.638 228,339.5C 230.46,338.042 232.627,336.209 234.5,334C 232.476,327.906 234.142,323.073 239.5,319.5C 241.71,320.982 243.376,320.482 244.5,318C 245.784,317.316 246.951,317.483 248,318.5C 249.467,315.198 251.967,313.198 255.5,312.5C 258.591,309.731 261.591,307.065 264.5,304.5 Z"/></g>
<g><path style="opacity:1" fill="#c6b9a1" d="M 446.5,342.5 C 448.129,343.625 449.629,344.959 451,346.5C 460.357,361.212 470.691,375.212 482,388.5C 483.934,392.759 486.268,396.759 489,400.5C 489.667,401.833 489.667,403.167 489,404.5C 459.402,405.832 429.902,405.832 400.5,404.5C 400.338,402.473 400.505,400.473 401,398.5C 402.75,396.266 404.25,393.932 405.5,391.5C 409.193,387.132 412.527,382.465 415.5,377.5C 417.747,376.755 419.58,375.422 421,373.5C 425.718,365.075 430.718,356.741 436,348.5C 438.14,346.36 440.306,344.194 442.5,342C 443.928,341.421 445.262,341.588 446.5,342.5 Z"/></g>
<g><path style="opacity:1" fill="#775d34" d="M 265.5,302.5 C 265.167,303.167 264.833,303.833 264.5,304.5C 261.591,307.065 258.591,309.731 255.5,312.5C 251.967,313.198 249.467,315.198 248,318.5C 246.951,317.483 245.784,317.316 244.5,318C 243.376,320.482 241.71,320.982 239.5,319.5C 234.142,323.073 232.476,327.906 234.5,334C 232.627,336.209 230.46,338.042 228,339.5C 212.695,361.638 197.195,383.638 181.5,405.5C 177.833,405.5 174.167,405.5 170.5,405.5C 178.118,396.847 185.118,387.514 191.5,377.5C 192.628,376.738 193.795,376.071 195,375.5C 198.873,367.791 203.373,360.457 208.5,353.5C 218.46,338.362 230.46,324.862 244.5,313C 251.439,309.195 258.439,305.695 265.5,302.5 Z"/></g>
<g><path style="opacity:1" fill="#d31703" d="M 341.5,323.5 C 341.762,324.978 341.429,326.311 340.5,327.5C 321.714,349.731 304.381,373.065 288.5,397.5C 285.818,400.243 283.151,402.909 280.5,405.5C 278.5,405.5 276.5,405.5 274.5,405.5C 276.754,402.825 279.421,400.492 282.5,398.5C 288.284,390.566 293.784,382.566 299,374.5C 305.746,367.966 311.246,360.633 315.5,352.5C 322.733,341.332 330.9,330.999 340,321.5C 340.717,322.044 341.217,322.711 341.5,323.5 Z"/></g>
<g><path style="opacity:0.445" fill="#b22813" d="M 453.5,340.5 C 455.199,340.34 456.866,340.506 458.5,341C 473.344,360.856 487.844,381.023 502,401.5C 503.812,402.977 505.645,404.31 507.5,405.5C 503.713,406.186 500.546,405.186 498,402.5C 483.304,381.652 468.47,360.986 453.5,340.5 Z"/></g>
<g><path style="opacity:0.659" fill="#df522b" d="M 251.5,325.5 C 247.091,333.301 241.924,340.634 236,347.5C 235.51,348.793 235.343,350.127 235.5,351.5C 234.325,351.281 233.325,351.614 232.5,352.5C 221.862,367.413 211.029,382.747 200,398.5C 198.193,400.74 198.026,403.073 199.5,405.5C 194.325,406.493 192.491,404.493 194,399.5C 211.173,375.814 228.34,352.147 245.5,328.5C 247.947,328.385 249.947,327.385 251.5,325.5 Z"/></g>
<g><path style="opacity:0.945" fill="#e58b21" d="M 561.5,352.5 C 572.312,367.433 583.145,382.433 594,397.5C 596.903,402.343 595.737,405.01 590.5,405.5C 589.928,402.915 589.761,400.249 590,397.5C 583.269,389.71 577.269,381.376 572,372.5C 567.841,368.161 564.174,363.494 561,358.5C 561.28,356.271 561.446,354.271 561.5,352.5 Z"/></g>
<g><path style="opacity:0.376" fill="#a81011" d="M 341.5,323.5 C 342.167,323.5 342.833,323.5 343.5,323.5C 344.341,325.379 344.675,327.379 344.5,329.5C 337.88,336.052 331.713,343.052 326,350.5C 313.333,368.5 300.667,386.5 288,404.5C 285.619,405.435 283.119,405.768 280.5,405.5C 283.151,402.909 285.818,400.243 288.5,397.5C 304.381,373.065 321.714,349.731 340.5,327.5C 341.429,326.311 341.762,324.978 341.5,323.5 Z"/></g>
<g><path style="opacity:1" fill="#dd3306" d="M 453.5,325.5 C 453.328,326.492 453.662,327.158 454.5,327.5C 458.732,334.957 463.232,342.291 468,349.5C 480.572,367.245 493.739,384.578 507.5,401.5C 508.6,402.605 509.267,403.938 509.5,405.5C 508.833,405.5 508.167,405.5 507.5,405.5C 505.645,404.31 503.812,402.977 502,401.5C 487.844,381.023 473.344,360.856 458.5,341C 456.866,340.506 455.199,340.34 453.5,340.5C 452.167,338.833 450.833,337.167 449.5,335.5C 448.69,331.476 450.023,328.143 453.5,325.5 Z"/></g>
<g><path style="opacity:0.995" fill="#f9621b" d="M 357.5,498.5 C 365.599,511.499 372.766,525.166 379,539.5C 383.702,545.373 387.202,544.706 389.5,537.5C 390.628,536.738 391.795,536.071 393,535.5C 396.895,526.137 401.229,517.137 406,508.5C 406.671,507.748 407.504,507.414 408.5,507.5C 409.496,507.586 410.329,507.252 411,506.5C 414.034,500.814 417.034,495.147 420,489.5C 421.333,488.167 422.667,486.833 424,485.5C 424.823,481.689 426.323,478.189 428.5,475C 428.355,474.228 428.022,473.561 427.5,473C 428.759,472.077 430.092,471.243 431.5,470.5C 434.6,461.689 439.1,453.689 445,446.5C 447.054,443.059 448.554,439.392 449.5,435.5C 451.386,429.474 454.386,424.14 458.5,419.5C 473.079,419.176 487.579,419.51 502,420.5C 502.667,484.167 502.667,547.833 502,611.5C 490.915,612.487 479.748,612.821 468.5,612.5C 467.209,611.527 467.209,610.527 468.5,609.5C 464.623,608.803 460.79,608.136 457,607.5C 456.5,574.168 456.333,540.835 456.5,507.5C 455.209,507.263 454.209,507.596 453.5,508.5C 449.816,509.372 448.816,511.539 450.5,515C 445.914,515.418 443.581,517.918 443.5,522.5C 435.684,533.703 429.017,545.703 423.5,558.5C 422.522,558.977 421.689,559.643 421,560.5C 413.769,571.63 407.602,583.297 402.5,595.5C 398.824,595.534 397.657,597.201 399,600.5C 397.391,601.147 395.891,601.98 394.5,603C 395.416,603.278 396.082,603.778 396.5,604.5C 386.911,605.639 377.244,605.806 367.5,605C 362.778,597.722 358.445,590.222 354.5,582.5C 354.369,581.761 354.536,581.094 355,580.5C 355.654,581.696 356.154,581.696 356.5,580.5C 355.902,579.205 355.402,577.872 355,576.5C 343.637,557.148 332.303,537.815 321,518.5C 319.629,516.959 318.129,515.625 316.5,514.5C 315.817,512.824 314.483,512.157 312.5,512.5C 312.5,525.167 312.5,537.833 312.5,550.5C 310.84,569.816 309.84,589.483 309.5,609.5C 307.787,609.879 306.787,610.879 306.5,612.5C 293.163,612.667 279.829,612.5 266.5,612C 266,611.5 265.5,611 265,610.5C 264.168,549.665 264.335,488.999 265.5,428.5C 265.238,429.978 265.571,431.311 266.5,432.5C 267.382,431.24 268.382,430.074 269.5,429C 273.377,428.743 277.043,427.743 280.5,426C 283.833,425.333 287.167,425.333 290.5,426C 289.672,426.915 288.672,427.581 287.5,428C 291.868,430.292 295.868,429.792 299.5,426.5C 298.313,425.481 297.313,424.314 296.5,423C 301.803,421.504 307.136,420.337 312.5,419.5C 312.338,421.527 312.505,423.527 313,425.5C 318.232,427.747 320.566,431.747 320,437.5C 321.828,438.661 323.328,440.161 324.5,442C 325.957,446.316 327.79,450.483 330,454.5C 331.074,455.618 332.24,456.618 333.5,457.5C 333.912,459.887 334.912,461.887 336.5,463.5C 337.287,467.145 337.454,470.812 337,474.5C 337.615,472.884 338.615,471.551 340,470.5C 341.328,475.734 343.162,480.734 345.5,485.5C 346.689,486.429 348.022,486.762 349.5,486.5C 349.5,488.5 349.5,490.5 349.5,492.5C 350.552,492.351 351.552,492.517 352.5,493C 353.377,495.612 355.043,497.445 357.5,498.5 Z"/></g>
<g><path style="opacity:0.821" fill="#c25437" d="M 343.5,464.5 C 342.15,467.106 340.65,467.106 339,464.5C 331.265,447.862 322.431,432.029 312.5,417C 310.19,416.503 307.857,416.337 305.5,416.5C 309.656,413.961 313.823,413.961 318,416.5C 326.78,432.395 335.28,448.395 343.5,464.5 Z"/></g>
<g><path style="opacity:1" fill="#fb5c18" d="M 719.5,450.5 C 718.4,454.731 717.067,458.898 715.5,463C 683.168,463.5 650.835,463.667 618.5,463.5C 618.5,462.5 618.5,461.5 618.5,460.5C 614.154,460.334 609.821,460.501 605.5,461C 606.696,461.654 606.696,462.154 605.5,462.5C 603.365,461.119 601.032,460.119 598.5,459.5C 599.246,458.264 599.579,456.93 599.5,455.5C 601.484,455.617 603.15,454.95 604.5,453.5C 600.979,453.242 597.479,452.908 594,452.5C 594.402,446.919 594.569,441.253 594.5,435.5C 593.127,435.657 591.793,435.49 590.5,435C 594.656,434.815 598.656,433.982 602.5,432.5C 602.291,431.914 601.957,431.414 601.5,431C 597.117,430.398 592.784,429.565 588.5,428.5C 590.766,427.686 593.1,427.186 595.5,427C 595.167,426.667 594.833,426.333 594.5,426C 609.075,425.177 623.575,425.344 638,426.5C 647.903,425.218 657.903,424.551 668,424.5C 684.826,425.231 701.659,425.565 718.5,425.5C 718.343,424.127 718.51,422.793 719,421.5C 720.836,422.669 722.002,424.336 722.5,426.5C 720.94,433.133 718.94,439.633 716.5,446C 716.414,448.352 717.414,449.852 719.5,450.5 Z"/></g>
<g><path style="opacity:1" fill="#fb5915" d="M 98.5,415.5 C 98.5,416.833 98.5,418.167 98.5,419.5C 99.5,419.5 100.5,419.5 101.5,419.5C 101.333,443.169 101.5,466.836 102,490.5C 102.671,491.252 103.504,491.586 104.5,491.5C 106.76,492.596 108.927,493.262 111,493.5C 114.437,489.198 118.103,489.198 122,493.5C 122.374,492.584 122.874,491.75 123.5,491C 121.652,488.821 119.485,486.987 117,485.5C 116.167,482.333 117.333,481.167 120.5,482C 123.189,483.881 125.023,486.381 126,489.5C 127.269,488.095 127.769,486.429 127.5,484.5C 129.948,484.085 131.281,485.085 131.5,487.5C 131.272,489.397 130.272,490.73 128.5,491.5C 128.808,492.308 129.308,492.975 130,493.5C 130.648,499.962 130.481,506.128 129.5,512C 130.288,515.076 130.788,518.242 131,521.5C 133.19,522.584 134.856,521.917 136,519.5C 138.305,521.93 141.138,522.93 144.5,522.5C 144.338,524.527 144.505,526.527 145,528.5C 146,529.833 147,529.833 148,528.5C 151.73,531.094 155.064,534.094 158,537.5C 159.713,548.465 159.879,559.465 158.5,570.5C 157.065,569.176 156.065,567.51 155.5,565.5C 154.585,566.328 153.919,567.328 153.5,568.5C 156.702,575.235 155.035,576.235 148.5,571.5C 149.724,569.161 149.724,566.828 148.5,564.5C 147.473,568.713 145.806,569.213 143.5,566C 139.502,565.289 138.835,566.289 141.5,569C 142.448,569.483 143.448,569.649 144.5,569.5C 144.5,570.5 144.5,571.5 144.5,572.5C 145.5,572.5 146.5,572.5 147.5,572.5C 147.5,573.833 147.5,575.167 147.5,576.5C 142.011,572.19 136.344,568.023 130.5,564C 127.284,559.776 123.618,555.776 119.5,552C 118.552,551.517 117.552,551.351 116.5,551.5C 111.895,548.564 107.895,544.898 104.5,540.5C 103.675,539.614 102.675,539.281 101.5,539.5C 101.5,562.5 101.5,585.5 101.5,608.5C 100.211,609.637 99.2112,610.97 98.5,612.5C 84.1628,612.667 69.8295,612.5 55.5,612C 54.8586,609.422 54.5252,606.755 54.5,604C 55.3035,545.507 55.8035,487.007 56,428.5C 70.3433,423.558 84.51,419.224 98.5,415.5 Z"/></g>
<g><path style="opacity:1" fill="#fa601d" d="M 590.5,419.5 C 635.847,419.108 681.181,419.608 726.5,421C 727.576,422.726 727.743,424.559 727,426.5C 724.482,434.593 721.982,442.593 719.5,450.5C 717.414,449.852 716.414,448.352 716.5,446C 718.94,439.633 720.94,433.133 722.5,426.5C 722.002,424.336 720.836,422.669 719,421.5C 718.51,422.793 718.343,424.127 718.5,425.5C 701.659,425.565 684.826,425.231 668,424.5C 657.903,424.551 647.903,425.218 638,426.5C 623.575,425.344 609.075,425.177 594.5,426C 594.833,426.333 595.167,426.667 595.5,427C 593.1,427.186 590.766,427.686 588.5,428.5C 592.784,429.565 597.117,430.398 601.5,431C 601.957,431.414 602.291,431.914 602.5,432.5C 598.656,433.982 594.656,434.815 590.5,435C 591.793,435.49 593.127,435.657 594.5,435.5C 594.569,441.253 594.402,446.919 594,452.5C 597.479,452.908 600.979,453.242 604.5,453.5C 603.15,454.95 601.484,455.617 599.5,455.5C 599.579,456.93 599.246,458.264 598.5,459.5C 601.032,460.119 603.365,461.119 605.5,462.5C 606.696,462.154 606.696,461.654 605.5,461C 609.821,460.501 614.154,460.334 618.5,460.5C 618.5,461.5 618.5,462.5 618.5,463.5C 610.442,463.913 602.442,465.246 594.5,467.5C 594.53,466.503 594.03,465.836 593,465.5C 584.911,469.263 580.245,475.596 579,484.5C 575.036,486.189 573.536,489.189 574.5,493.5C 573.5,493.5 572.5,493.5 571.5,493.5C 571.315,500.446 570.315,507.28 568.5,514C 569.07,521.605 570.07,529.105 571.5,536.5C 570.883,536.611 570.383,536.944 570,537.5C 569.245,540.688 568.411,543.855 567.5,547C 569.449,549.326 569.782,551.826 568.5,554.5C 567.749,553.624 567.249,552.624 567,551.5C 565.648,553.594 565.148,555.927 565.5,558.5C 563.167,558.5 560.833,558.5 558.5,558.5C 558.5,563.167 558.5,567.833 558.5,572.5C 555.751,572.726 553.084,572.393 550.5,571.5C 550.167,571.833 549.833,572.167 549.5,572.5C 550.95,573.85 551.617,575.516 551.5,577.5C 549.738,577.643 548.071,577.309 546.5,576.5C 545.614,577.325 545.281,578.325 545.5,579.5C 542.833,576.5 540.167,573.5 537.5,570.5C 531.38,561.355 527.38,551.355 525.5,540.5C 524.792,536.215 524.292,531.882 524,527.5C 523.308,526.975 522.808,526.308 522.5,525.5C 525.339,520.732 524.672,516.399 520.5,512.5C 520.43,510.334 521.096,510.001 522.5,511.5C 523.851,507.968 523.518,504.635 521.5,501.5C 522.623,500.785 523.623,499.619 524.5,498C 528.459,468.568 542.793,445.901 567.5,430C 570.815,428.17 574.149,426.67 577.5,425.5C 582.528,424.817 586.862,422.817 590.5,419.5 Z"/></g>
<g><path style="opacity:0.448" fill="#e36c3a" d="M 189.5,418.5 C 189.5,419.833 189.5,421.167 189.5,422.5C 186.482,422.335 183.482,422.502 180.5,423C 160.221,442.455 139.554,461.288 118.5,479.5C 117.702,479.043 117.369,478.376 117.5,477.5C 118.833,477.5 119.5,476.833 119.5,475.5C 121.22,472.269 123.553,469.436 126.5,467C 144.132,451.703 161.465,436.036 178.5,420C 182.026,418.663 185.692,418.163 189.5,418.5 Z"/></g>
<g><path style="opacity:1" fill="#f16433" d="M 449.5,435.5 C 448.554,439.392 447.054,443.059 445,446.5C 439.1,453.689 434.6,461.689 431.5,470.5C 430.092,471.243 428.759,472.077 427.5,473C 428.022,473.561 428.355,474.228 428.5,475C 426.323,478.189 424.823,481.689 424,485.5C 422.667,486.833 421.333,488.167 420,489.5C 417.034,495.147 414.034,500.814 411,506.5C 410.329,507.252 409.496,507.586 408.5,507.5C 410.88,498.857 415.047,491.19 421,484.5C 428.378,468.748 436.711,453.415 446,438.5C 447.039,437.29 448.206,436.29 449.5,435.5 Z"/></g>
<g><path style="opacity:0.612" fill="#ac2e1d" d="M 590.5,419.5 C 586.862,422.817 582.528,424.817 577.5,425.5C 569.484,425.893 562.484,428.726 556.5,434C 555.167,434.333 553.833,434.667 552.5,435C 548.966,438.869 545.133,442.369 541,445.5C 535.86,452.39 531.36,459.723 527.5,467.5C 525.786,469.35 523.786,470.684 521.5,471.5C 527.425,456.827 536.425,444.327 548.5,434C 560.92,424.693 574.92,419.86 590.5,419.5 Z"/></g>
<g><path style="opacity:1" fill="#cc250d" d="M 119.5,475.5 C 119.5,476.833 118.833,477.5 117.5,477.5C 113.251,482.088 108.918,486.755 104.5,491.5C 103.504,491.586 102.671,491.252 102,490.5C 101.5,466.836 101.333,443.169 101.5,419.5C 100.5,419.5 99.5,419.5 98.5,419.5C 98.5,418.167 98.5,416.833 98.5,415.5C 102.132,414.96 105.799,414.627 109.5,414.5C 112.613,414.562 115.446,415.229 118,416.5C 118.168,436.338 118.668,456.004 119.5,475.5 Z"/></g>
<g><path style="opacity:1" fill="#d23a17" d="M 577.5,425.5 C 574.149,426.67 570.815,428.17 567.5,430C 542.793,445.901 528.459,468.568 524.5,498C 523.623,499.619 522.623,500.785 521.5,501.5C 523.518,504.635 523.851,507.968 522.5,511.5C 521.096,510.001 520.43,510.334 520.5,512.5C 524.672,516.399 525.339,520.732 522.5,525.5C 522.808,526.308 523.308,526.975 524,527.5C 524.292,531.882 524.792,536.215 525.5,540.5C 524.414,540.38 523.747,539.713 523.5,538.5C 522.229,534.314 520.896,530.147 519.5,526C 520.233,524.234 520.567,522.401 520.5,520.5C 519.167,520.5 517.833,520.5 516.5,520.5C 515.73,503.865 517.397,487.532 521.5,471.5C 523.786,470.684 525.786,469.35 527.5,467.5C 531.36,459.723 535.86,452.39 541,445.5C 545.133,442.369 548.966,438.869 552.5,435C 553.833,434.667 555.167,434.333 556.5,434C 562.484,428.726 569.484,425.893 577.5,425.5 Z"/></g>
<g><path style="opacity:1" fill="#f2662e" d="M 305.5,416.5 C 307.857,416.337 310.19,416.503 312.5,417C 322.431,432.029 331.265,447.862 339,464.5C 340.65,467.106 342.15,467.106 343.5,464.5C 344.401,465.29 345.068,466.29 345.5,467.5C 342.687,470.932 343.187,473.932 347,476.5C 350.31,483.961 353.81,491.294 357.5,498.5C 355.043,497.445 353.377,495.612 352.5,493C 351.552,492.517 350.552,492.351 349.5,492.5C 349.5,490.5 349.5,488.5 349.5,486.5C 348.022,486.762 346.689,486.429 345.5,485.5C 343.162,480.734 341.328,475.734 340,470.5C 338.615,471.551 337.615,472.884 337,474.5C 337.454,470.812 337.287,467.145 336.5,463.5C 334.912,461.887 333.912,459.887 333.5,457.5C 332.24,456.618 331.074,455.618 330,454.5C 327.79,450.483 325.957,446.316 324.5,442C 323.328,440.161 321.828,438.661 320,437.5C 320.566,431.747 318.232,427.747 313,425.5C 312.505,423.527 312.338,421.527 312.5,419.5C 307.136,420.337 301.803,421.504 296.5,423C 297.313,424.314 298.313,425.481 299.5,426.5C 295.868,429.792 291.868,430.292 287.5,428C 288.672,427.581 289.672,426.915 290.5,426C 287.167,425.333 283.833,425.333 280.5,426C 277.043,427.743 273.377,428.743 269.5,429C 268.382,430.074 267.382,431.24 266.5,432.5C 265.571,431.311 265.238,429.978 265.5,428.5C 265.414,427.504 265.748,426.671 266.5,426C 279.402,422.308 292.402,419.141 305.5,416.5 Z"/></g>
<g><path style="opacity:1" fill="#fb5d1a" d="M 189.5,418.5 C 206.167,418.5 222.833,418.5 239.5,418.5C 239.33,419.822 239.663,420.989 240.5,422C 234.237,426.259 228.571,431.259 223.5,437C 218.048,440.25 213.381,444.417 209.5,449.5C 199.186,457.149 189.852,465.816 181.5,475.5C 179.869,477.297 177.869,478.464 175.5,479C 167.627,486.706 159.294,493.873 150.5,500.5C 146.805,504.526 143.138,508.526 139.5,512.5C 170.235,541.928 201.568,570.761 233.5,599C 234.793,599.49 236.127,599.657 237.5,599.5C 237.831,601.322 238.498,602.989 239.5,604.5C 238.005,604.415 237.005,605.081 236.5,606.5C 217.509,607.666 198.509,607.833 179.5,607C 174.488,602.326 169.154,597.993 163.5,594C 162.663,592.989 162.33,591.822 162.5,590.5C 158.962,588.814 155.796,586.48 153,583.5C 151.989,584.337 150.822,584.67 149.5,584.5C 148.5,584.167 147.833,583.5 147.5,582.5C 148.573,580.653 148.573,578.653 147.5,576.5C 147.5,575.167 147.5,573.833 147.5,572.5C 146.5,572.5 145.5,572.5 144.5,572.5C 144.5,571.5 144.5,570.5 144.5,569.5C 143.448,569.649 142.448,569.483 141.5,569C 138.835,566.289 139.502,565.289 143.5,566C 145.806,569.213 147.473,568.713 148.5,564.5C 149.724,566.828 149.724,569.161 148.5,571.5C 155.035,576.235 156.702,575.235 153.5,568.5C 153.919,567.328 154.585,566.328 155.5,565.5C 156.065,567.51 157.065,569.176 158.5,570.5C 159.879,559.465 159.713,548.465 158,537.5C 155.064,534.094 151.73,531.094 148,528.5C 147,529.833 146,529.833 145,528.5C 144.505,526.527 144.338,524.527 144.5,522.5C 141.138,522.93 138.305,521.93 136,519.5C 134.856,521.917 133.19,522.584 131,521.5C 130.788,518.242 130.288,515.076 129.5,512C 130.481,506.128 130.648,499.962 130,493.5C 129.308,492.975 128.808,492.308 128.5,491.5C 130.272,490.73 131.272,489.397 131.5,487.5C 131.281,485.085 129.948,484.085 127.5,484.5C 127.769,486.429 127.269,488.095 126,489.5C 125.023,486.381 123.189,483.881 120.5,482C 117.333,481.167 116.167,482.333 117,485.5C 119.485,486.987 121.652,488.821 123.5,491C 122.874,491.75 122.374,492.584 122,493.5C 118.103,489.198 114.437,489.198 111,493.5C 108.927,493.262 106.76,492.596 104.5,491.5C 108.918,486.755 113.251,482.088 117.5,477.5C 117.369,478.376 117.702,479.043 118.5,479.5C 139.554,461.288 160.221,442.455 180.5,423C 183.482,422.502 186.482,422.335 189.5,422.5C 189.5,421.167 189.5,419.833 189.5,418.5 Z"/></g>
<g><path style="opacity:0.51" fill="#a41b14" d="M 242.5,418.5 C 247.123,417.408 248.956,419.075 248,423.5C 221.739,446.438 196.239,469.938 171.5,494C 170.5,494.333 169.5,494.667 168.5,495C 164.176,499.498 159.843,503.998 155.5,508.5C 154.448,508.351 153.448,508.517 152.5,509C 153.252,509.671 153.586,510.504 153.5,511.5C 151.978,510.809 150.978,509.642 150.5,508C 152.066,504.173 154.733,501.506 158.5,500C 184.926,475.234 211.592,450.9 238.5,427C 240.351,425.316 242.018,423.483 243.5,421.5C 242.873,420.583 242.539,419.583 242.5,418.5 Z"/></g>
<g><path style="opacity:0.691" fill="#b9472c" d="M 458.5,419.5 C 454.386,424.14 451.386,429.474 449.5,435.5C 448.206,436.29 447.039,437.29 446,438.5C 436.711,453.415 428.378,468.748 421,484.5C 415.047,491.19 410.88,498.857 408.5,507.5C 407.504,507.414 406.671,507.748 406,508.5C 401.229,517.137 396.895,526.137 393,535.5C 391.795,536.071 390.628,536.738 389.5,537.5C 387.202,544.706 383.702,545.373 379,539.5C 372.766,525.166 365.599,511.499 357.5,498.5C 353.81,491.294 350.31,483.961 347,476.5C 343.187,473.932 342.687,470.932 345.5,467.5C 358.186,491.197 371.019,514.864 384,538.5C 406.906,499.028 429.572,459.362 452,419.5C 454.12,418.395 456.287,418.395 458.5,419.5 Z"/></g>
<g><path style="opacity:0.829" fill="#c4462e" d="M 316.5,514.5 C 317.833,516.167 317.833,517.833 316.5,519.5C 316.5,530.167 316.5,540.833 316.5,551.5C 315.504,551.414 314.671,551.748 314,552.5C 313.722,551.584 313.222,550.918 312.5,550.5C 312.5,537.833 312.5,525.167 312.5,512.5C 314.483,512.157 315.817,512.824 316.5,514.5 Z"/></g>
<g><path style="opacity:1" fill="#d63612" d="M 239.5,418.5 C 240.5,418.5 241.5,418.5 242.5,418.5C 242.539,419.583 242.873,420.583 243.5,421.5C 242.018,423.483 240.351,425.316 238.5,427C 211.592,450.9 184.926,475.234 158.5,500C 154.733,501.506 152.066,504.173 150.5,508C 150.978,509.642 151.978,510.809 153.5,511.5C 156.913,514.221 159.913,517.388 162.5,521C 167.324,522.482 170.991,525.482 173.5,530C 174.5,530.333 175.5,530.667 176.5,531C 180.812,534.981 184.812,539.314 188.5,544C 202.127,556.619 216.127,568.952 230.5,581C 236.613,587.113 242.779,593.279 249,599.5C 249.167,600 249.333,600.5 249.5,601C 247.159,604.564 244.493,607.73 241.5,610.5C 240.199,609.116 240.199,607.616 241.5,606C 240.956,605.283 240.289,604.783 239.5,604.5C 238.498,602.989 237.831,601.322 237.5,599.5C 236.127,599.657 234.793,599.49 233.5,599C 201.568,570.761 170.235,541.928 139.5,512.5C 143.138,508.526 146.805,504.526 150.5,500.5C 159.294,493.873 167.627,486.706 175.5,479C 177.869,478.464 179.869,477.297 181.5,475.5C 189.852,465.816 199.186,457.149 209.5,449.5C 213.381,444.417 218.048,440.25 223.5,437C 228.571,431.259 234.237,426.259 240.5,422C 239.663,420.989 239.33,419.822 239.5,418.5 Z"/></g>
<g><path style="opacity:0.547" fill="#c65937" d="M 516.5,520.5 C 517.833,520.5 519.167,520.5 520.5,520.5C 520.567,522.401 520.233,524.234 519.5,526C 520.896,530.147 522.229,534.314 523.5,538.5C 523.747,539.713 524.414,540.38 525.5,540.5C 527.38,551.355 531.38,561.355 537.5,570.5C 537.5,571.833 536.833,572.5 535.5,572.5C 524.068,557.219 517.734,539.886 516.5,520.5 Z"/></g>
<g><path style="opacity:0.816" fill="#b3160a" d="M 116.5,551.5 C 118.611,553.491 119.944,555.491 120.5,557.5C 118.681,570.797 117.848,584.463 118,598.5C 114.012,602.655 109.845,606.655 105.5,610.5C 103.271,611.577 100.937,612.244 98.5,612.5C 99.2112,610.97 100.211,609.637 101.5,608.5C 106.626,604.876 111.292,600.709 115.5,596C 114.841,588.576 114.508,581.076 114.5,573.5C 114.503,565.802 115.169,558.468 116.5,551.5 Z"/></g>
<g><path style="opacity:0.897" fill="#e4571e" d="M 594.5,467.5 C 590.53,470.639 587.03,474.305 584,478.5C 570.831,503.078 570.165,528.078 582,553.5C 586.566,558.866 592.399,561.699 599.5,562C 601.126,564.628 603.126,566.961 605.5,569C 640.5,569.667 675.5,569.667 710.5,569C 715.349,564.548 720.349,564.548 725.5,569C 726.944,570.126 727.61,571.626 727.5,573.5C 723.702,585.395 720.202,597.395 717,609.5C 716.5,611.333 715.333,612.5 713.5,613C 675.459,613.821 637.459,613.654 599.5,612.5C 599.279,611.265 598.612,610.265 597.5,609.5C 635.829,608.667 674.162,608.167 712.5,608C 716.983,597.582 720.316,586.749 722.5,575.5C 722,575.167 721.5,574.833 721,574.5C 719.606,575.613 718.439,576.947 717.5,578.5C 716.571,577.311 716.238,575.978 716.5,574.5C 692.849,574.365 669.182,574.698 645.5,575.5C 631.842,574.804 618.175,574.304 604.5,574C 586.888,567.227 575.888,554.727 571.5,536.5C 570.07,529.105 569.07,521.605 568.5,514C 570.315,507.28 571.315,500.446 571.5,493.5C 572.5,493.5 573.5,493.5 574.5,493.5C 573.536,489.189 575.036,486.189 579,484.5C 580.245,475.596 584.911,469.263 593,465.5C 594.03,465.836 594.53,466.503 594.5,467.5 Z"/></g>
<g><path style="opacity:0.351" fill="#e2652e" d="M 316.5,514.5 C 318.129,515.625 319.629,516.959 321,518.5C 332.303,537.815 343.637,557.148 355,576.5C 355.402,577.872 355.902,579.205 356.5,580.5C 356.154,581.696 355.654,581.696 355,580.5C 354.536,581.094 354.369,581.761 354.5,582.5C 341.582,561.666 328.915,540.666 316.5,519.5C 317.833,517.833 317.833,516.167 316.5,514.5 Z"/></g>
<g><path style="opacity:1" fill="#d21f01" d="M 116.5,551.5 C 115.169,558.468 114.503,565.802 114.5,573.5C 114.508,581.076 114.841,588.576 115.5,596C 111.292,600.709 106.626,604.876 101.5,608.5C 101.5,585.5 101.5,562.5 101.5,539.5C 102.675,539.281 103.675,539.614 104.5,540.5C 107.895,544.898 111.895,548.564 116.5,551.5 Z"/></g>
<g><path style="opacity:1" fill="#fc5a16" d="M 571.5,536.5 C 575.888,554.727 586.888,567.227 604.5,574C 618.175,574.304 631.842,574.804 645.5,575.5C 669.182,574.698 692.849,574.365 716.5,574.5C 716.238,575.978 716.571,577.311 717.5,578.5C 718.439,576.947 719.606,575.613 721,574.5C 721.5,574.833 722,575.167 722.5,575.5C 720.316,586.749 716.983,597.582 712.5,608C 674.162,608.167 635.829,608.667 597.5,609.5C 598.612,610.265 599.279,611.265 599.5,612.5C 596.5,612.5 593.5,612.5 590.5,612.5C 591.172,611.733 592.005,611.066 593,610.5C 593.749,609.365 593.583,608.365 592.5,607.5C 586.124,606.215 579.79,604.715 573.5,603C 569.383,600.292 565.05,597.959 560.5,596C 554.991,590.924 549.991,585.424 545.5,579.5C 545.281,578.325 545.614,577.325 546.5,576.5C 548.071,577.309 549.738,577.643 551.5,577.5C 551.617,575.516 550.95,573.85 549.5,572.5C 549.833,572.167 550.167,571.833 550.5,571.5C 553.084,572.393 555.751,572.726 558.5,572.5C 558.5,567.833 558.5,563.167 558.5,558.5C 560.833,558.5 563.167,558.5 565.5,558.5C 565.148,555.927 565.648,553.594 567,551.5C 567.249,552.624 567.749,553.624 568.5,554.5C 569.782,551.826 569.449,549.326 567.5,547C 568.411,543.855 569.245,540.688 570,537.5C 570.383,536.944 570.883,536.611 571.5,536.5 Z"/></g>
<g><path style="opacity:0.519" fill="#d95e28" d="M 116.5,551.5 C 117.552,551.351 118.552,551.517 119.5,552C 123.618,555.776 127.284,559.776 130.5,564C 136.344,568.023 142.011,572.19 147.5,576.5C 148.573,578.653 148.573,580.653 147.5,582.5C 137.888,574.855 128.888,566.522 120.5,557.5C 119.944,555.491 118.611,553.491 116.5,551.5 Z"/></g>
<g><path style="opacity:0.758" fill="#c11007" d="M 312.5,550.5 C 313.222,550.918 313.722,551.584 314,552.5C 314.671,551.748 315.504,551.414 316.5,551.5C 316.667,568.503 316.5,585.503 316,602.5C 314.833,605.5 313.667,608.5 312.5,611.5C 310.604,612.466 308.604,612.799 306.5,612.5C 306.787,610.879 307.787,609.879 309.5,609.5C 309.84,589.483 310.84,569.816 312.5,550.5 Z"/></g>
<g><path style="opacity:0.616" fill="#e4672f" d="M 453.5,508.5 C 452.91,510.097 451.91,511.431 450.5,512.5C 450.624,513.107 450.957,513.44 451.5,513.5C 451.509,515.308 451.009,516.975 450,518.5C 433.64,546.194 417.64,574.194 402,602.5C 400.556,604.155 398.722,604.822 396.5,604.5C 396.082,603.778 395.416,603.278 394.5,603C 395.891,601.98 397.391,601.147 399,600.5C 397.657,597.201 398.824,595.534 402.5,595.5C 407.602,583.297 413.769,571.63 421,560.5C 421.689,559.643 422.522,558.977 423.5,558.5C 429.017,545.703 435.684,533.703 443.5,522.5C 443.581,517.918 445.914,515.418 450.5,515C 448.816,511.539 449.816,509.372 453.5,508.5 Z"/></g>
<g><path style="opacity:0.671" fill="#aa361e" d="M 155.5,508.5 C 175.609,526.103 195.609,543.937 215.5,562C 228.135,574.312 240.968,586.145 254,597.5C 254.667,598.833 254.667,600.167 254,601.5C 251.667,604.833 249.333,608.167 247,611.5C 244.959,612.423 242.792,612.756 240.5,612.5C 240.833,611.833 241.167,611.167 241.5,610.5C 244.493,607.73 247.159,604.564 249.5,601C 249.333,600.5 249.167,600 249,599.5C 242.779,593.279 236.613,587.113 230.5,581C 216.127,568.952 202.127,556.619 188.5,544C 184.812,539.314 180.812,534.981 176.5,531C 175.5,530.667 174.5,530.333 173.5,530C 170.991,525.482 167.324,522.482 162.5,521C 159.913,517.388 156.913,514.221 153.5,511.5C 153.586,510.504 153.252,509.671 152.5,509C 153.448,508.517 154.448,508.351 155.5,508.5 Z"/></g>
<g><path style="opacity:0.669" fill="#d54a1a" d="M 468.5,612.5 C 464.108,613.992 459.775,613.825 455.5,612C 454.475,609.929 453.642,607.762 453,605.5C 452.832,574.664 452.332,543.997 451.5,513.5C 450.957,513.44 450.624,513.107 450.5,512.5C 451.91,511.431 452.91,510.097 453.5,508.5C 454.209,507.596 455.209,507.263 456.5,507.5C 456.333,540.835 456.5,574.168 457,607.5C 460.79,608.136 464.623,608.803 468.5,609.5C 467.209,610.527 467.209,611.527 468.5,612.5 Z"/></g>
<g><path style="opacity:0.474" fill="#e05c25" d="M 537.5,570.5 C 540.167,573.5 542.833,576.5 545.5,579.5C 549.991,585.424 554.991,590.924 560.5,596C 565.05,597.959 569.383,600.292 573.5,603C 579.79,604.715 586.124,606.215 592.5,607.5C 593.583,608.365 593.749,609.365 593,610.5C 592.005,611.066 591.172,611.733 590.5,612.5C 566.552,606.885 548.218,593.551 535.5,572.5C 536.833,572.5 537.5,571.833 537.5,570.5 Z"/></g>
<g><path style="opacity:0.696" fill="#ed5e20" d="M 239.5,604.5 C 240.289,604.783 240.956,605.283 241.5,606C 240.199,607.616 240.199,609.116 241.5,610.5C 241.167,611.167 240.833,611.833 240.5,612.5C 220.497,612.667 200.497,612.5 180.5,612C 177.588,610.76 174.921,609.094 172.5,607C 164.938,599.27 157.272,591.77 149.5,584.5C 150.822,584.67 151.989,584.337 153,583.5C 155.796,586.48 158.962,588.814 162.5,590.5C 162.33,591.822 162.663,592.989 163.5,594C 169.154,597.993 174.488,602.326 179.5,607C 198.509,607.833 217.509,607.666 236.5,606.5C 237.005,605.081 238.005,604.415 239.5,604.5 Z"/></g>
</svg>
